# xmcd
#
# Track frame offsets:
#	187
#	19905
#	38160
#	59425
#	78340
#	112800
#	137272
#	157975
#	174307
#	192960
#	214562
#	236637
#	255720
#	272825
#
# Disc length: 3876 seconds
# Revision: 1
# Processed by: cddbd v1.5.2PL0 Copyright (c) Steve Scherf et al.
# Submitted via: dBpowerAMP V12.0
#
DISCID=b20f220e
DTITLE=Blackstreet - Finally
DYEAR=1999
DGENRE=R&B
TTITLE0=Blackstreet Intro/Can You Feel Me
TTITLE1=Girlfriend/Boyfriend
TTITLE2=Yo Love
TTITLE3=I Got What You On
TTITLE4=Drama/Misery Interlude
TTITLE5=I'm Sorry
TTITLE6=Think About You
TTITLE7=Black and White
TTITLE8=In a Rush
TTITLE9=Hustler's Prayer
TTITLE10=Finally
TTITLE11=Take Me There
TTITLE12=Don't Stop
TTITLE13=Confused
EXTD=
EXTT0=
EXTT1=
EXTT2=
EXTT3=
EXTT4=
EXTT5=
EXTT6=
EXTT7=
EXTT8=
EXTT9=
EXTT10=
EXTT11=
EXTT12=
EXTT13=
PLAYORDER=
